<?xml version="1.0" encoding="UTF-8"?>
<svg xmlns="http://www.w3.org/2000/svg" xmlns:xlink="http://www.w3.org/1999/xlink" viewBox="0 0 32 32" width="32px" height="32px">
<g id="surface72348241">
<path style=" stroke:none;fill-rule:nonzero;fill:rgb(55.686277%,12.54902%,78.823531%);fill-opacity:1;" d="M 8 8 C 3.597656 8 0 11.597656 0 16 C 0 20.402344 3.597656 24 8 24 C 10.585938 24 12.878906 22.773438 14.347656 20.867188 C 13.757812 20.027344 13.242188 19.171875 12.761719 18.371094 C 11.90625 20.132812 10.09375 21.332031 8 21.332031 C 5.039062 21.332031 2.667969 18.960938 2.667969 16 C 2.667969 13.039062 5.039062 10.667969 8 10.667969 C 9.628906 10.667969 10.726562 11.277344 11.808594 12.359375 C 12.890625 13.441406 13.855469 15.019531 14.855469 16.683594 C 15.855469 18.351562 16.890625 20.109375 18.308594 21.527344 C 19.726562 22.945312 21.628906 24 24 24 C 28.402344 24 32 20.402344 32 16 C 32 11.597656 28.402344 8 24 8 C 21.414062 8 19.121094 9.226562 17.652344 11.132812 C 18.242188 11.972656 18.757812 12.828125 19.238281 13.628906 C 20.09375 11.867188 21.90625 10.667969 24 10.667969 C 26.960938 10.667969 29.332031 13.039062 29.332031 16 C 29.332031 18.960938 26.960938 21.332031 24 21.332031 C 22.371094 21.332031 21.273438 20.722656 20.191406 19.640625 C 19.109375 18.558594 18.144531 16.980469 17.144531 15.316406 C 16.144531 13.648438 15.109375 11.890625 13.691406 10.472656 C 12.273438 9.054688 10.371094 8 8 8 Z M 8 8 "/>
</g>
</svg>
